<?xml version="1.0" encoding="UTF-8" standalone="no"?> <svg xmlns="http://www.w3.org/2000/svg" viewBox="0 0 512 512"><title>Sparkling_water</title><g id="Sparkling_water"><path d="M351.4376,209.3539a7.9031,7.9031,0,0,0-7.9984,7.8067c.0158-.0627.0192.157.0281.2641.0107.12.0064.3.0109.4478.01.3017-.0535,2.3385-.1054,3.0366-.1057,1.4016-.2555,2.8331-.4829,4.2674a73.39,73.39,0,0,1-1.8591,8.6291,81.1459,81.1459,0,0,1-2.9366,8.498c-.5286,1.4171-1.21,2.7694-1.8164,4.1634-.6433,1.3756-1.3629,2.7175-2.0424,4.0875l-.154.309a5.1615,5.1615,0,0,0,8.8683,5.23c.9671-1.3969,1.9752-2.7752,2.9115-4.2049.9011-1.4507,5.188-8.9056,5.188-8.9056.8232-1.5215,1.5109-3.1148,2.2524-4.6887a87.2812,87.2812,0,0,0,3.6554-9.8747c.5221-1.6973.9665-3.4338,1.3614-5.2125.1969-.8921.903-5.39.9259-5.8549A7.9029,7.9029,0,0,0,351.4376,209.3539Z"/><circle cx="325.3244" cy="273.8866" r="8.0642" transform="translate(-94.072 344.289) rotate(-49.6228)"/><path d="M440.15,10.27H378.8291a58.0749,58.0749,0,0,0-56.645,46.1179.3544.3544,0,0,0-.02.0994l-.6262,3.1727a376.6458,376.6458,0,0,0-66.2174-5.63c-83.37,0-150.96,24.9246-150.96,55.67h-.03s-7.5719,63.59,24.1186,126.0455c27.79,54.7644,42.5956,113.1008,37.2625,161.01a133.6472,133.6472,0,0,1-5.2039,24.2976c-2.4875,8.1391-5.0048,27.1932,2.1393,51.1227l.03-.01c4.2586,19.9794,44.108,35.6306,92.6437,35.6306s88.3851-15.6512,92.6537-35.6306c7.144-23.93,4.6267-42.9737,2.1392-51.1128a134.4869,134.4869,0,0,1-5.2038-24.2976c-5.3331-47.9089,9.4723-106.2453,37.2625-161.01C413.8727,173.29,406.2909,109.7,406.2909,109.7h-.01c0-18.7013-25.0053-35.248-63.3595-45.3429l.7049-3.571A36.1122,36.1122,0,0,1,378.8291,32.16H440.15a10.9449,10.9449,0,1,0,0-21.89Zm-184.83,58.8338a403.7161,403.7161,0,0,1,63.4123,4.7687l-.0014.0074L304.334,146.7531c.0275-.0033.0546-.0011.082-.0035a421.7185,421.7185,0,0,1-49.0953,2.78c-74.0771,0-134.1348-18.0094-134.1348-40.2176S181.2436,69.1038,255.3207,69.1038Zm36.3914,141.5217c-10.3726,8.7614-21.9753,17.5541-39.1072,25.4256-23.291,10.7005-48.5866,12.0905-75.1846,4.1335a132.57,132.57,0,0,1-30.7427-13.6575,8.7211,8.7211,0,0,1,1.86-2.95c3.9955-4.3327,16.2673-11.3108,53.5489-9.3427,40.0692,2.1139,69.6492-.078,89.711-4.04ZM119.8128,155.28a12.3589,12.3589,0,0,1,17.84-12.517,139.5218,139.5218,0,0,0,20.5465,8.01c26.1186,8.04,60.615,12.4573,97.1212,12.4573a422.3387,422.3387,0,0,0,46.32-2.4811c-.0242.0034-.0486.0108-.0726.0135l-7.0453,35.6439c-3.9939.9392-8.6025,1.8312-13.8947,2.6133-20.8939,3.0885-47.8175,3.8823-77.8606,2.2975-33.3138-1.7548-55.0063,3.0642-64.4758,14.3278a21.8219,21.8219,0,0,0-2.8365,4.3026C126.7342,198.7642,122.1787,174.353,119.8128,155.28ZM370.64,229.8846c-30.3074,59.7393-44.0185,119.5085-38.5858,168.293a146.15,146.15,0,0,0,5.6913,26.6558c.5572,1.8407,5.2735,18.7158-2.169,43.63l-.1493.4975-.1094.5074c-.8657,4.0795-7.93,10.5967-21.7406,15.94-15.7408,6.0894-36.4366,9.4524-58.2568,9.4524s-42.5061-3.363-58.2568-9.4524c-13.81-5.3431-20.8649-11.86-21.74-15.94l-2.7363-11.0046c-3.7412-19.3625-.189-32.0486.2886-33.6307a146.1329,146.1329,0,0,0,5.6913-26.6558c5.1053-45.844-6.6894-101.3886-33.2886-157.4929a147.3187,147.3187,0,0,0,27.9783,11.7546,128.3842,128.3842,0,0,0,37.2456,5.6809,113.1272,113.1272,0,0,0,47.5031-10.3158,167.2041,167.2041,0,0,0,29.8392-17.6076L246.7335,438.2835c-35.3668,1.3574-62.7863,10.9777-62.7863,22.6516,0,12.6043,31.9564,22.8221,71.3768,22.8221s71.3768-10.2178,71.3768-22.8221c0-11.1079-24.824-20.3579-57.6985-22.3986l45.5171-230.433c16.5376-13.8366,34.1894-25.351,72.7445-30.32C383.9052,195.1861,378.7045,214.0023,370.64,229.8846ZM390.7988,155.33c-.3668,2.9463-.79,6.0266-1.2672,9.1955a6.5059,6.5059,0,0,0-.8052.0383c-34.3726,4.0186-54.2714,12.9918-69.8795,23.86-.1374-.044-.2776-.0778-.4174-.1125l6.1029-30.8818-.0047,0a242.922,242.922,0,0,0,27.9241-6.657,138.3834,138.3834,0,0,0,20.5864-8A12.3524,12.3524,0,0,1,390.7988,155.33Zm-1.3332-46.0184c0,14.2694-24.7969,26.8044-62.1762,33.9434.0162-.0036.0327-.0111.0489-.0142l12.8552-65.0625.0007-.0035C370.2671,85.5478,389.4656,96.7564,389.4656,109.3115Z"/></g></svg>